<svg width="32" height="38" viewBox="0 0 32 38" fill="none" xmlns="http://www.w3.org/2000/svg">
<path d="M16 38C11.5667 38 7.79167 36.4917 4.675 33.475C1.55833 30.4583 0 26.7333 0 22.3C0 20.1 0.425 18.05 1.275 16.15C2.125 14.25 3.28333 12.5667 4.75 11.1L16 0L27.25 11.1C28.7167 12.5667 29.875 14.25 30.725 16.15C31.575 18.05 32 20.1 32 22.3C32 26.7333 30.4417 30.4583 27.325 33.475C24.2083 36.4917 20.4333 38 16 38ZM3.15 24H28.85C29.2833 21.7 29.0333 19.5833 28.1 17.65C27.1667 15.7167 26.2333 14.3 25.3 13.4L16 4.25L6.7 13.4C5.76667 14.3 4.83333 15.7167 3.9 17.65C2.96667 19.5833 2.71667 21.7 3.15 24Z" fill="#1A1AFF"/>
</svg>
